<svg xmlns="http://www.w3.org/2000/svg" xmlns:xlink="http://www.w3.org/1999/xlink" version="1.1" x="0px" y="0px" viewBox="0 0 100 125" style="enable-background:new 0 0 100 100;" xml:space="preserve"><path d="M62,56.5c6.62,0,12-5.38,12-12v-4c0-1.1-0.9-2-2-2H60c-3.08,0-5.87,1.17-8,3.08v-6.75c4.84-2.31,8-7.48,8-13.33  c0-6.38-3.76-11.96-9.35-13.89c-0.42-0.15-0.88-0.15-1.31,0C43.76,9.54,40,15.12,40,21.5c0,5.85,3.16,11.02,8,13.33v6.75  c-2.13-1.91-4.93-3.08-8-3.08H28c-1.1,0-2,0.9-2,2v4c0,6.62,5.38,12,12,12h10v9.08c-2.13-1.91-4.93-3.08-8-3.08H28c-1.1,0-2,0.9-2,2  v4c0,6.62,5.38,12,12,12h10v10c0,1.1,0.9,2,2,2s2-0.9,2-2v-10h10c6.62,0,12-5.38,12-12v-4c0-1.1-0.9-2-2-2H60  c-3.08,0-5.87,1.17-8,3.08V56.5H62z M60,42.5h10v2c0,4.41-3.59,8-8,8H52v-1v-1C52,46.09,55.59,42.5,60,42.5z M44,21.5  c0-4.41,2.38-8.28,6-9.85c3.62,1.58,6,5.44,6,9.85s-2.38,8.28-6,9.85C46.38,29.78,44,25.91,44,21.5z M30,44.5v-2h10  c4.41,0,8,3.59,8,8v1v1H38C33.59,52.5,30,48.91,30,44.5z M30,68.5v-2h10c4.41,0,8,3.59,8,8v2H38C33.59,76.5,30,72.91,30,68.5z   M60,66.5h10v2c0,4.41-3.59,8-8,8H52v-2C52,70.09,55.59,66.5,60,66.5z"/></svg>